<?xml version="1.0" encoding="UTF-8" standalone="no"?>
<!-- Created with Inkscape (http://www.inkscape.org/) -->

<svg
   xmlns:dc="http://purl.org/dc/elements/1.1/"
   xmlns:cc="http://creativecommons.org/ns#"
   xmlns:rdf="http://www.w3.org/1999/02/22-rdf-syntax-ns#"
   xmlns:svg="http://www.w3.org/2000/svg"
   xmlns="http://www.w3.org/2000/svg"
   xmlns:sodipodi="http://sodipodi.sourceforge.net/DTD/sodipodi-0.dtd"
   xmlns:inkscape="http://www.inkscape.org/namespaces/inkscape"
   width="49.287769mm"
   height="27.455248mm"
   viewBox="0 0 174.64171 97.282373"
   id="svg4461"
   version="1.1"
   inkscape:version="0.91 r13725"
   sodipodi:docname="alieno_zampe_a.svg">
  <defs
     id="defs4463" />
  <sodipodi:namedview
     id="base"
     pagecolor="#ffffff"
     bordercolor="#666666"
     borderopacity="1.0"
     inkscape:pageopacity="0.0"
     inkscape:pageshadow="2"
     inkscape:zoom="0.35"
     inkscape:cx="-343.2154"
     inkscape:cy="-22.717463"
     inkscape:document-units="px"
     inkscape:current-layer="layer1"
     showgrid="false"
     fit-margin-top="0"
     fit-margin-left="0"
     fit-margin-right="0"
     fit-margin-bottom="0"
     inkscape:window-width="1366"
     inkscape:window-height="705"
     inkscape:window-x="-8"
     inkscape:window-y="-8"
     inkscape:window-maximized="1" />
  <metadata
     id="metadata4466">
    <rdf:RDF>
      <cc:Work
         rdf:about="">
        <dc:format>image/svg+xml</dc:format>
        <dc:type
           rdf:resource="http://purl.org/dc/dcmitype/StillImage" />
        <dc:title></dc:title>
      </cc:Work>
    </rdf:RDF>
  </metadata>
  <g
     inkscape:label="Livello 1"
     inkscape:groupmode="layer"
     id="layer1"
     transform="translate(-216.78685,-412.36236)">
    <g
       transform="translate(-52.804608,33.979886)"
       id="g5033">
      <g
         transform="matrix(-1,0,0,1,720.1869,0)"
         id="g4245">
        <path
           inkscape:connector-curvature="0"
           id="path4218"
           d="m 417.1771,378.57756 c -4.75126,0.1341 -9.45601,1.69016 -13.33789,4.44839 -8.28863,5.87283 -13.35048,14.8094 -18.28216,23.13933 l 1.5989,0.9458 c 4.94266,-8.34847 9.90603,-17.00799 17.75726,-22.5709 4.75617,-3.37944 10.91995,-4.8061 16.65665,-3.78801 6.40171,1.35112 11.49326,6.09859 15.88017,11.02299 l 0.0193,0.0218 0.0193,0.0193 c 2.3712,2.34948 6.4151,2.22242 8.48072,-0.50555 1.81492,-1.94279 2.95636,-4.22331 4.36614,-6.11018 l -1.48763,-1.1127 c -1.55839,2.08577 -2.67426,4.31411 -4.26939,6.00374 l -0.0363,0.0386 -0.0339,0.0436 c -1.36952,1.83585 -4.10493,1.91556 -5.71106,0.32414 l 0.0387,0.0411 c -4.46645,-5.01367 -9.82771,-10.12122 -16.8937,-11.60837 l -0.0124,-0.002 -0.0145,-0.002 c -1.56481,-0.27924 -3.15489,-0.39303 -4.73865,-0.34832 z"
           style="color:#000000;font-style:normal;font-variant:normal;font-weight:normal;font-stretch:normal;font-size:medium;line-height:normal;font-family:sans-serif;text-indent:0;text-align:start;text-decoration:none;text-decoration-line:none;text-decoration-style:solid;text-decoration-color:#000000;letter-spacing:normal;word-spacing:normal;text-transform:none;direction:ltr;block-progression:tb;writing-mode:lr-tb;baseline-shift:baseline;text-anchor:start;white-space:normal;clip-rule:nonzero;display:inline;overflow:visible;visibility:visible;opacity:1;isolation:auto;mix-blend-mode:normal;color-interpolation:sRGB;color-interpolation-filters:linearRGB;solid-color:#000000;solid-opacity:1;fill:#1bfd48;fill-opacity:1;fill-rule:evenodd;stroke:#000000;stroke-width:0.37154534;stroke-linecap:butt;stroke-linejoin:miter;stroke-miterlimit:4;stroke-dasharray:none;stroke-dashoffset:0;stroke-opacity:1;color-rendering:auto;image-rendering:auto;shape-rendering:auto;text-rendering:auto;enable-background:accumulate" />
        <path
           inkscape:connector-curvature="0"
           id="path4220"
           d="m 417.78739,419.63793 c -3.64624,-3.04918 -8.20024,-5.00289 -12.93507,-5.51104 -10.09887,-1.09742 -19.81274,2.23804 -29.02702,5.20559 l 0.57016,1.76803 c 9.23478,-2.97414 18.69127,-6.16745 28.25721,-5.12795 5.80122,0.62261 11.36184,3.64038 14.9821,8.20546 3.89739,5.25526 4.56243,12.18491 4.58262,18.77993 l 10e-6,0.0291 10e-4,0.0273 c 0.21789,3.33094 3.32984,5.91648 6.68474,5.24329 2.64673,-0.25148 5.01308,-1.20228 7.3194,-1.68047 l -0.3762,-1.81924 c -2.54944,0.5286 -4.86206,1.45728 -7.1764,1.66492 l -0.0528,0.005 -0.0544,0.01 c -2.24235,0.46668 -4.34322,-1.28693 -4.49081,-3.54314 l 10e-4,0.0564 c -0.0206,-6.71458 -0.64884,-14.09261 -4.95342,-19.89006 l -0.007,-0.01 -0.009,-0.0112 c -0.98649,-1.24639 -2.10156,-2.38563 -3.31698,-3.40203 z"
           style="color:#000000;font-style:normal;font-variant:normal;font-weight:normal;font-stretch:normal;font-size:medium;line-height:normal;font-family:sans-serif;text-indent:0;text-align:start;text-decoration:none;text-decoration-line:none;text-decoration-style:solid;text-decoration-color:#000000;letter-spacing:normal;word-spacing:normal;text-transform:none;direction:ltr;block-progression:tb;writing-mode:lr-tb;baseline-shift:baseline;text-anchor:start;white-space:normal;clip-rule:nonzero;display:inline;overflow:visible;visibility:visible;opacity:1;isolation:auto;mix-blend-mode:normal;color-interpolation:sRGB;color-interpolation-filters:linearRGB;solid-color:#000000;solid-opacity:1;fill:#1bfd48;fill-opacity:1;fill-rule:evenodd;stroke:#000000;stroke-width:0.37154534;stroke-linecap:butt;stroke-linejoin:miter;stroke-miterlimit:4;stroke-dasharray:none;stroke-dashoffset:0;stroke-opacity:1;color-rendering:auto;image-rendering:auto;shape-rendering:auto;text-rendering:auto;enable-background:accumulate" />
      </g>
      <g
         transform="matrix(-1,0,0,1,731.61572,0)"
         id="g4249">
        <path
           style="color:#000000;font-style:normal;font-variant:normal;font-weight:normal;font-stretch:normal;font-size:medium;line-height:normal;font-family:sans-serif;text-indent:0;text-align:start;text-decoration:none;text-decoration-line:none;text-decoration-style:solid;text-decoration-color:#000000;letter-spacing:normal;word-spacing:normal;text-transform:none;direction:ltr;block-progression:tb;writing-mode:lr-tb;baseline-shift:baseline;text-anchor:start;white-space:normal;clip-rule:nonzero;display:inline;overflow:visible;visibility:visible;opacity:1;isolation:auto;mix-blend-mode:normal;color-interpolation:sRGB;color-interpolation-filters:linearRGB;solid-color:#000000;solid-opacity:1;fill:#1bfd48;fill-opacity:1;fill-rule:evenodd;stroke:#000000;stroke-width:0.37154534;stroke-linecap:butt;stroke-linejoin:miter;stroke-miterlimit:4;stroke-dasharray:none;stroke-dashoffset:0;stroke-opacity:1;color-rendering:auto;image-rendering:auto;shape-rendering:auto;text-rendering:auto;enable-background:accumulate"
           d="m 308.03722,402.29914 c 3.64624,-3.04917 8.20024,-5.00288 12.93507,-5.51103 10.09887,-1.09742 19.81274,2.23804 29.02703,5.20559 l -0.57016,1.76803 c -9.23479,-2.97414 -18.69127,-6.16745 -28.25721,-5.12796 -5.80123,0.62262 -11.36185,3.64039 -14.98211,8.20547 -3.89739,5.25526 -4.56243,12.1849 -4.58262,18.77993 l -10e-6,0.0291 -0.001,0.0272 c -0.21788,3.33095 -3.32984,5.91649 -6.68474,5.2433 -2.64673,-0.25149 -5.01308,-1.20228 -7.31939,-1.68047 l 0.3762,-1.81924 c 2.54943,0.5286 4.86205,1.45728 7.1764,1.66492 l 0.0528,0.005 0.0544,0.01 c 2.24235,0.46668 4.34322,-1.28693 4.49081,-3.54314 l -10e-4,0.0564 c 0.0206,-6.71458 0.64884,-14.09261 4.95342,-19.89006 l 0.007,-0.01 0.009,-0.0111 c 0.98649,-1.24639 2.10156,-2.38563 3.31698,-3.40203 z"
           id="path4222"
           inkscape:connector-curvature="0" />
        <path
           style="color:#000000;font-style:normal;font-variant:normal;font-weight:normal;font-stretch:normal;font-size:medium;line-height:normal;font-family:sans-serif;text-indent:0;text-align:start;text-decoration:none;text-decoration-line:none;text-decoration-style:solid;text-decoration-color:#000000;letter-spacing:normal;word-spacing:normal;text-transform:none;direction:ltr;block-progression:tb;writing-mode:lr-tb;baseline-shift:baseline;text-anchor:start;white-space:normal;clip-rule:nonzero;display:inline;overflow:visible;visibility:visible;opacity:1;isolation:auto;mix-blend-mode:normal;color-interpolation:sRGB;color-interpolation-filters:linearRGB;solid-color:#000000;solid-opacity:1;fill:#1bfd48;fill-opacity:1;fill-rule:evenodd;stroke:#000000;stroke-width:0.37154534;stroke-linecap:butt;stroke-linejoin:miter;stroke-miterlimit:4;stroke-dasharray:none;stroke-dashoffset:0;stroke-opacity:1;color-rendering:auto;image-rendering:auto;shape-rendering:auto;text-rendering:auto;enable-background:accumulate"
           d="m 318.24885,442.23031 c 0.14594,-4.75091 1.71372,-9.45177 4.4816,-13.32678 5.89347,-8.27396 14.84262,-13.31353 23.18482,-18.22444 l 0.9418,1.60126 c -8.36075,4.92184 -17.0326,9.86362 -22.61506,17.70096 -3.39128,4.74775 -4.83329,10.90794 -3.8295,16.64717 1.33517,6.40505 6.06995,11.50841 10.9834,15.90757 l 0.0218,0.0193 0.0193,0.0193 c 2.34358,2.37705 2.20644,6.42063 -0.52667,8.47944 -1.9473,1.81008 -4.23065,2.94583 -6.12103,4.3509 l -1.109,-1.49039 c 2.08965,-1.55318 4.32076,-2.66351 6.01437,-4.25442 l 0.0388,-0.0362 0.0437,-0.0338 c 1.83925,-1.36495 1.92577,-4.10015 0.33835,-5.71023 l 0.041,0.0388 c -5.00254,-4.47891 -10.09671,-9.85288 -11.56624,-16.92256 l -0.002,-0.0124 -0.002,-0.0145 c -0.27534,-1.5655 -0.38517,-3.15585 -0.33651,-4.7395 z"
           id="path4224"
           inkscape:connector-curvature="0" />
      </g>
      <g
         id="g5612">
        <path
           style="opacity:1;fill:#1bfd48;fill-opacity:1;fill-rule:nonzero;stroke:#000000;stroke-width:0.6625427;stroke-linecap:butt;stroke-miterlimit:4;stroke-dasharray:none;stroke-dashoffset:0;stroke-opacity:1"
           d="m 392.11495,423.02107 c 0,18.57782 -8.90762,34.27009 -31.71098,33.63811 -22.80342,-0.63197 -31.71097,-15.06029 -31.71097,-33.63811 0,-18.57783 4.81389,-34.21545 31.71097,-33.63813 26.89704,0.57733 31.71098,15.0603 31.71098,33.63813 z"
           id="path4226"
           inkscape:connector-curvature="0"
           sodipodi:nodetypes="szszs" />
        <g
           transform="matrix(1.2384844,0,0,1.2384844,40.513361,-125.26789)"
           id="g4228">
          <circle
             transform="scale(-1,1)"
             style="opacity:1;fill:#ffffff;fill-opacity:1;fill-rule:nonzero;stroke:#000000;stroke-width:1;stroke-linecap:butt;stroke-miterlimit:4;stroke-dasharray:none;stroke-dashoffset:0;stroke-opacity:1"
             id="circle4230"
             cx="-257.72357"
             cy="435.43295"
             r="8.0077391" />
          <circle
             r="3.5957236"
             cy="435.74545"
             cx="-255.00035"
             id="circle4232"
             style="opacity:1;fill:#000000;fill-opacity:1;fill-rule:nonzero;stroke:#000000;stroke-width:0.44903105;stroke-linecap:butt;stroke-miterlimit:4;stroke-dasharray:none;stroke-dashoffset:0;stroke-opacity:1"
             transform="scale(-1,1)" />
        </g>
        <path
           inkscape:connector-curvature="0"
           id="path4234"
           d="m 346.32164,432.43562 c 2.10718,-0.34799 4.42457,-1.59316 6.46826,-0.35391 1.74137,0.86506 3.84934,0.0237 5.08837,-1.32532 1.90763,-1.04808 4.405,-1.04414 6.23402,0.17745 2.92478,0.75985 5.48007,-2.24664 8.39805,-1.191 2.09625,0.57961 3.50735,2.74447 3.48122,4.8747 0.58992,1.69368 2.22255,3.03914 2.08451,4.95766 -0.53864,1.52965 -2.39734,1.402 -3.71558,1.31754 -1.36243,-0.27541 -2.44093,0.75811 -3.04355,1.85909 -0.65501,1.21185 -1.58719,2.40905 -3.03164,2.65436 -1.73153,0.46696 -3.546,-0.0492 -5.0865,-0.86272 -2.3096,-0.74222 -4.18883,1.32777 -6.37412,1.62521 -2.00625,0.33613 -4.15253,0.0371 -6.00848,-0.77911 -1.46528,-0.88906 -1.93007,-2.92701 -3.68414,-3.46573 -1.85375,-0.35187 -4.2169,-0.72871 -5.01921,-2.7133 -0.16657,-2.01592 1.67027,-3.28797 2.63318,-4.82684 0.55492,-0.62122 1.2501,-1.15664 1.57561,-1.94808 z"
           style="fill:#000000;fill-opacity:1;fill-rule:evenodd;stroke:#ffffff;stroke-width:1.23848438px;stroke-linecap:butt;stroke-linejoin:miter;stroke-opacity:1" />
      </g>
    </g>
  </g>
</svg>
